<svg width="31" height="27" viewBox="0 0 31 27" fill="none" xmlns="http://www.w3.org/2000/svg">
<path fill-rule="evenodd" clip-rule="evenodd" d="M27.7313 2.93595C24.3325 -0.435302 18.8977 -0.505614 15.3771 2.66595C11.8557 -0.505614 6.42266 -0.435302 3.022 2.93595C-0.481678 6.40845 -0.481678 12.0381 3.022 15.5125C4.02319 16.5053 13.3738 25.7697 13.3738 25.7697C14.4818 26.8684 16.2734 26.8684 17.3804 25.7697C17.3804 25.7697 27.6189 15.6241 27.7323 15.5125C31.2369 12.0381 31.2369 6.40845 27.7313 2.93595ZM26.3967 14.1888L16.0449 24.4459C15.6768 24.8125 15.0765 24.8125 14.7103 24.4459L4.35847 14.1888C1.59562 11.4513 1.59562 6.9972 4.35847 4.2597C7.02206 1.62064 11.304 1.52782 14.1072 4.05157L15.3771 5.19532L16.6462 4.05157C19.4502 1.52782 23.7322 1.6197 26.3958 4.2597C29.1586 6.99626 29.1586 11.4503 26.3967 14.1888Z" fill="#ECCACA"/>
<path fill-rule="evenodd" clip-rule="evenodd" d="M9.056 5.0322C9.05413 5.0322 9.05413 5.03313 9.05226 5.03313C6.85602 5.03501 5.07561 6.8172 5.07561 9.01657C5.07561 9.27532 5.2854 9.48532 5.5439 9.48532C5.80239 9.48532 6.01218 9.27532 6.01218 9.01657V9.01563C6.01218 7.33376 7.37488 5.9697 9.05507 5.9697H9.056C9.3145 5.9697 9.52429 5.7597 9.52429 5.50095C9.52429 5.2422 9.31543 5.0322 9.056 5.0322Z" fill="#ECCACA"/>
</svg>
