<svg width="48" height="30" viewBox="0 0 48 30" fill="none" xmlns="http://www.w3.org/2000/svg">
<path d="M15.015 0.0282001C14.3212 0.0820465 13.6762 0.217943 12.9937 0.448713C11.1037 1.0923 9.82125 2.33846 9.59999 3.75897C9.56999 3.96666 9.5625 5.7564 9.56999 10.6795C9.585 17.9795 9.56625 17.3923 9.80624 17.9615C10.275 19.0744 11.4712 20.0487 12.9937 20.5615C13.4925 20.7282 13.9875 20.8487 14.52 20.9256C14.8087 20.9692 15.0525 20.982 15.9712 20.9923C17.025 21.0051 17.0662 21.0077 17.0025 21.0513C16.9612 21.0769 16.02 21.5667 14.9062 22.1436C13.7925 22.7179 11.0925 24.1231 8.90625 25.2667C6.71999 26.4103 3.88874 27.8846 2.61374 28.5436C1.33499 29.2026 0.303741 29.7436 0.314991 29.7436C0.329991 29.7436 0.423741 29.7154 0.524991 29.6795C0.629991 29.6436 0.712491 29.6179 0.712491 29.6231C0.712491 29.6282 0.569991 29.7051 0.393741 29.7923C0.0862412 29.9513 0.00374115 30.0026 0.142491 29.9513C0.419991 29.8513 6.51749 27.7308 8.8875 26.9103C10.5075 26.3513 12.5062 25.659 13.3312 25.3718C14.1562 25.0846 16.14 24.4 17.7375 23.8461C19.335 23.2923 21.8175 22.4282 23.25 21.9256L25.8563 21.0128L34.275 21L42.6938 20.9846L43.1063 20.9179C43.7925 20.8051 44.325 20.6667 44.8613 20.4564C46.605 19.7795 47.7525 18.5769 47.9625 17.2128C47.9888 17.0436 48 14.8051 47.9925 10.3205L47.9813 3.67948L47.88 3.38461C47.7375 2.95641 47.6138 2.72307 47.3438 2.34615C47.0288 1.91282 46.6913 1.5923 46.1813 1.24358C45.3713 0.689739 44.3963 0.310251 43.3125 0.128201C42.54 -0.00513268 43.1963 -5.72205e-06 28.7438 0.00255966C21.3413 0.00512314 15.1612 0.015379 15.015 0.0282001Z" fill="#ECCACA"/>
</svg>
