<svg width="28" height="30" viewBox="0 0 28 30" fill="none" xmlns="http://www.w3.org/2000/svg">
<path d="M18.278 16.434C17.105 17.109 15.749 17.502 14.297 17.502C12.758 17.502 11.327 17.061 10.109 16.308C4.505 18.006 0.421997 23.259 0.421997 29.484C0.421997 29.556 0.430997 29.628 0.433997 29.7H27.569C27.569 29.628 27.581 29.556 27.581 29.484C27.578 23.403 23.675 18.252 18.278 16.434Z" fill="#ECCACA"/>
<path d="M14.297 0.299988C9.87501 0.299988 6.29001 3.88499 6.29001 8.30399C6.29001 11.187 7.82001 13.704 10.106 15.117C11.324 15.867 12.758 16.311 14.294 16.311C15.746 16.311 17.099 15.918 18.275 15.243C20.678 13.863 22.298 11.274 22.298 8.30699C22.301 3.88499 18.716 0.299988 14.297 0.299988Z" fill="#ECCACA"/>
</svg>
