<svg width="32" height="32" viewBox="0 0 32 32" fill="none" xmlns="http://www.w3.org/2000/svg">
<path d="M20 0.00500488C13.373 0.00500488 8.00005 5.37801 8.00005 12.005C8.00005 14.031 8.50705 15.938 9.39504 17.613L1.05106 25.955L1.05806 25.961C0.40606 26.602 6.10352e-05 27.49 6.10352e-05 28.477C6.10352e-05 30.426 1.58006 32.006 3.52905 32.006C4.51405 32.006 5.40305 31.6 6.04405 30.947L6.04205 30.945L14.383 22.605C16.059 23.496 17.969 24.005 20 24.005C26.627 24.005 32 18.632 32 12.005C32 5.37801 26.627 0.00500488 20 0.00500488ZM4.79505 29.697C4.47305 30.031 4.02705 30.24 3.52905 30.24C2.55406 30.24 1.76406 29.451 1.76406 28.476C1.76406 27.978 1.97406 27.533 2.30706 27.21L2.29806 27.202L10.364 19.136C11.069 20.087 11.909 20.927 12.858 21.634L4.79505 29.697ZM20 22.006C14.478 22.006 10 17.527 10 12.006C10 6.484 14.478 2.006 20 2.006C25.521 2.006 30 6.484 30 12.006C30 17.527 25.521 22.006 20 22.006Z" fill="#ECCACA"/>
<path d="M20 5.005C16.133 5.005 13 8.139 13 12.005C13 12.281 13.224 12.505 13.5 12.505C13.776 12.505 14 12.281 14 12.005C14 8.692 16.686 6.005 20 6.005C20.275 6.005 20.5 5.781 20.5 5.505C20.5 5.229 20.275 5.005 20 5.005Z" fill="#ECCACA"/>
</svg>
