<svg width="45" height="29" viewBox="0 0 45 29" fill="none" xmlns="http://www.w3.org/2000/svg">
<path d="M41.4 0H3.6C1.61995 0 0 1.6313 0 3.625V25.375C0 27.3687 1.61995 29 3.6 29H41.4C43.38 29 45 27.3687 45 25.375V3.625C45 1.6313 43.38 0 41.4 0ZM40.5 1.8126L22.5 17.5814L4.49995 1.8126H40.5ZM2.33995 26.6438C1.97995 26.2813 1.8 25.9188 1.8 25.375V3.625C1.8 3.0813 1.98005 2.7188 2.33995 2.3562L16.2 14.5L2.33995 26.6438ZM4.49995 27.1876L17.64 15.7688L22.5 19.9375L27.36 15.7688L40.5 27.1875H4.49995V27.1876ZM43.2 25.375C43.2 25.9187 43.02 26.2812 42.66 26.6438L28.8 14.5L42.66 2.3562C43.02 2.7187 43.2 3.0812 43.2 3.625V25.375Z" fill="#D8A9A9"/>
</svg>
